<?xml version="1.0" standalone="no"?>
<!DOCTYPE svg PUBLIC "-//W3C//DTD SVG 20010904//EN"
 "http://www.w3.org/TR/2001/REC-SVG-20010904/DTD/svg10.dtd">
<svg version="1.0" xmlns="http://www.w3.org/2000/svg"
 width="629.000000pt" height="629.000000pt" viewBox="0 0 629.000000 629.000000"
 preserveAspectRatio="xMidYMid meet">
<metadata>
Created by potrace 1.14, written by Peter Selinger 2001-2017
</metadata>
<g transform="translate(0.000000,629.000000) scale(0.100000,-0.100000)"
fill="#000000" stroke="none">
<path d="M4396 3643 c-33 -76 -70 -160 -82 -188 -26 -60 -254 -585 -261 -602
-4 -10 20 -13 99 -13 l104 0 29 68 c16 37 43 99 61 137 17 39 48 108 69 155
20 47 39 87 41 89 2 2 20 -31 40 -75 19 -43 44 -97 54 -119 10 -22 16 -42 15
-45 -2 -3 -49 -5 -104 -5 -117 2 -113 12 -47 -115 l44 -85 201 -3 201 -2 0
-140 0 -139 58 2 57 2 3 178 2 177 23 -21 c48 -45 98 -63 177 -64 114 0 198
53 242 152 26 60 30 78 29 155 -1 115 -53 208 -145 256 -97 50 -239 32 -306
-40 l-20 -22 0 42 0 42 -60 0 -60 0 0 -277 0 -278 -61 140 c-33 77 -84 194
-113 260 -29 66 -90 209 -137 317 -46 109 -86 198 -89 198 -3 0 -32 -62 -64
-137z m844 -342 c66 -41 96 -108 87 -197 -11 -116 -111 -188 -222 -160 -36 9
-62 29 -95 76 -21 30 -25 46 -25 111 0 64 4 81 25 111 53 78 158 105 230 59z"/>
<path d="M326 3718 c5 -8 1 -9 -12 -4 -10 4 -15 4 -12 0 4 -3 -3 -15 -15 -24
l-22 -18 0 -491 0 -491 28 -27 27 -28 252 -1 c213 -1 257 2 280 15 15 9 28 22
28 29 0 6 5 12 11 12 5 0 8 4 4 9 -3 5 -1 12 5 16 15 9 13 38 -2 29 -10 -6
-10 -4 0 7 17 18 17 83 0 73 -10 -6 -10 -5 -1 7 14 18 16 202 2 193 -6 -3 -5
4 3 15 11 18 11 23 -2 31 -10 6 -11 10 -3 10 10 0 12 60 12 255 -1 188 -4 253
-13 248 -6 -3 -6 0 1 8 15 15 17 53 3 44 -6 -3 -7 1 -4 9 4 10 -8 29 -30 51
l-37 36 -255 -1 c-183 -1 -252 -4 -248 -12z m466 -87 c13 -1 16 -12 16 -61 -1
-41 -4 -57 -12 -53 -8 5 -8 3 0 -8 6 -8 11 -36 10 -64 -1 -27 3 -53 9 -57 7
-5 7 -8 0 -8 -6 0 -10 -27 -9 -65 1 -43 -2 -65 -10 -65 -8 0 -8 -2 0 -8 15
-10 15 -243 0 -235 -7 4 -7 1 0 -8 8 -9 11 -60 10 -144 l-1 -130 -205 -2
c-113 -1 -214 0 -226 2 -21 5 -21 6 -19 447 1 244 2 448 3 453 2 8 326 12 434
6z"/>
<path d="M505 3529 c-30 -32 -7 -89 30 -75 8 3 15 1 15 -4 0 -6 9 -6 25 0 14
5 27 5 30 1 3 -5 19 -4 35 2 23 9 30 18 30 37 0 44 -13 52 -84 54 -50 1 -71
-2 -81 -15z"/>
<path d="M546 2841 c-18 -20 -15 -61 5 -61 6 0 8 -4 5 -9 -5 -7 13 -8 47 -2 4
0 12 13 17 27 19 49 -39 84 -74 45z"/>
<path d="M3710 3230 l0 -390 60 0 60 0 0 390 0 390 -60 0 -60 0 0 -390z"/>
<path d="M1118 3553 c-2 -4 -4 -51 -4 -103 l1 -95 185 -2 c249 -2 243 -2 258
-11 20 -13 23 -54 5 -74 -14 -15 -33 -18 -131 -18 l-114 0 4 24 c5 22 1 25
-41 28 -25 1 -73 1 -106 -2 l-60 -5 0 -225 0 -225 103 -3 c78 -2 102 0 103 10
0 7 0 53 0 102 l0 90 153 -153 154 -154 126 -1 c69 0 126 1 126 4 0 3 -69 74
-152 159 -84 84 -148 151 -142 148 16 -9 84 12 117 35 37 27 59 71 72 148 19
114 -4 210 -66 271 -50 49 -103 58 -358 59 -126 0 -231 -3 -233 -7z"/>
<path d="M1988 3411 c-131 -51 -198 -164 -185 -314 7 -83 29 -130 85 -186 109
-108 305 -107 415 3 65 65 81 108 82 216 0 84 -3 101 -27 146 -50 95 -137 146
-253 150 -48 2 -84 -3 -117 -15z m201 -117 c48 -28 75 -88 75 -164 0 -118 -68
-192 -175 -192 -63 1 -103 23 -136 75 -23 36 -27 53 -27 117 0 57 5 83 20 107
54 87 153 110 243 57z"/>
<path d="M3205 3421 c-77 -20 -145 -77 -179 -150 -17 -37 -21 -65 -21 -141 0
-84 3 -101 27 -147 55 -103 126 -148 238 -148 82 0 130 17 175 62 27 28 30 23
25 -34 -1 -22 2 -23 62 -23 l63 0 -1 273 c-1 149 -2 280 -3 290 -1 14 -11 17
-62 17 -57 0 -60 -1 -59 -22 1 -13 2 -32 1 -43 -1 -19 -1 -19 -15 0 -36 52
-170 87 -251 66z m209 -147 c95 -92 70 -265 -46 -319 -105 -48 -211 8 -237
125 -34 151 73 271 211 237 21 -5 53 -25 72 -43z"/>
<path d="M5750 3409 c-25 -11 -57 -32 -72 -46 l-28 -27 0 42 0 42 -60 0 -60 0
0 -428 0 -428 60 -1 60 -1 0 182 c1 179 1 181 19 158 11 -12 43 -33 72 -47
139 -64 304 7 360 154 56 149 3 318 -122 386 -71 38 -162 44 -229 14z m178
-119 c42 -31 63 -74 69 -140 13 -144 -112 -250 -237 -202 -70 27 -118 120
-107 211 8 69 39 115 97 144 41 21 56 23 99 16 27 -4 63 -17 79 -29z"/>
<path d="M2403 3408 c71 -166 222 -557 219 -568 -2 -8 -10 -28 -17 -45 -49
-112 -93 -225 -87 -226 38 -4 105 -3 112 1 7 4 274 634 341 803 l19 47 -63 0
-62 0 -79 -208 c-43 -114 -82 -210 -86 -215 -3 -4 -42 90 -86 208 l-79 215
-69 0 c-51 0 -67 -3 -63 -12z"/>
</g>
</svg>
